<?xml version="1.0" standalone="no"?>
<!DOCTYPE svg PUBLIC "-//W3C//DTD SVG 20010904//EN"
 "http://www.w3.org/TR/2001/REC-SVG-20010904/DTD/svg10.dtd">
<svg version="1.0" xmlns="http://www.w3.org/2000/svg"
 width="640.000000pt" height="640.000000pt" viewBox="0 0 640.000000 640.000000"
 preserveAspectRatio="xMidYMid meet">
<metadata>
Created by potrace 1.15, written by Peter Selinger 2001-2017
</metadata>
<g transform="translate(0.000000,640.000000) scale(0.100000,-0.100000)"
fill="#000000" stroke="none">
<path d="M0 3200 l0 -3200 577 0 576 0 -6 120 c-9 160 -18 231 -28 224 -12 -7
-11 13 1 37 6 11 7 19 1 19 -5 0 -11 15 -15 32 -8 44 -10 50 -20 67 -5 8 -10
32 -12 54 -2 22 -8 43 -13 46 -5 3 -12 35 -15 69 -4 35 -13 70 -20 78 -8 7
-14 29 -14 48 0 18 -5 43 -11 54 -6 11 -11 31 -11 44 0 32 -28 111 -44 123
-13 10 -41 57 -52 88 -3 9 -10 17 -15 17 -5 0 -25 18 -44 39 -20 21 -51 46
-70 55 -19 10 -35 21 -35 26 0 4 -13 11 -29 15 -16 3 -35 13 -41 21 -7 7 -16
12 -20 9 -4 -3 -10 2 -14 10 -3 8 -14 15 -25 15 -10 0 -21 7 -25 15 -3 8 -13
15 -23 15 -10 0 -43 23 -73 52 -30 28 -65 57 -77 66 -13 8 -23 20 -23 27 0 6
-17 30 -38 52 -49 54 -62 70 -62 81 0 4 -10 19 -23 32 -12 14 -21 28 -20 32 2
4 -8 23 -21 42 -13 20 -27 52 -31 73 -4 20 -13 50 -21 65 -8 16 -14 45 -14 66
1 20 -3 55 -9 77 -6 22 -9 63 -6 90 2 28 7 82 10 121 3 39 15 95 26 125 11 30
24 67 29 83 5 15 17 34 27 42 10 7 14 14 10 14 -5 0 -1 12 7 28 8 15 17 34 21
42 18 43 53 99 58 93 4 -3 10 8 13 26 4 18 13 35 20 38 7 2 16 18 19 34 4 19
16 34 31 39 13 5 23 13 22 17 0 5 4 20 10 36 11 26 19 38 49 72 7 7 13 18 13
24 0 5 9 13 20 16 11 3 20 13 20 21 0 18 21 57 37 67 7 4 13 12 13 17 0 5 17
38 38 72 20 35 48 86 61 115 13 29 27 50 31 48 4 -3 13 17 20 43 7 26 19 54
26 63 8 8 17 30 20 47 4 17 13 37 20 43 8 6 14 22 14 34 0 13 7 25 15 29 8 3
15 14 15 25 0 26 21 71 32 71 5 0 14 14 19 30 6 17 17 30 23 30 12 0 30 29 35
55 1 6 9 14 17 18 8 4 14 14 14 20 0 7 19 24 42 37 23 14 54 37 69 53 15 15
34 27 43 27 9 0 16 5 16 10 0 6 10 15 23 21 44 20 71 38 79 53 5 9 16 16 23
16 8 0 15 5 15 11 0 6 8 8 19 4 13 -4 20 0 23 13 3 11 18 21 37 25 17 4 30 11
29 17 -3 9 50 35 87 43 6 1 27 13 48 26 20 12 48 24 61 25 13 2 36 13 51 25
15 11 38 21 51 21 13 0 28 9 34 20 6 11 16 20 23 19 40 -5 70 5 100 31 19 17
42 30 51 30 16 0 56 67 56 93 0 8 -7 27 -15 44 -34 68 -43 452 -11 486 16 17
76 140 76 154 0 12 39 84 50 93 9 6 90 179 90 190 0 5 6 15 13 22 6 7 20 30
29 51 10 21 25 40 33 43 8 4 15 14 15 24 0 11 5 22 10 25 6 4 19 24 30 46 11
21 27 39 35 39 18 0 20 16 3 23 -7 3 -3 6 9 6 13 1 30 13 40 29 10 15 28 35
40 45 13 10 23 25 23 33 0 8 10 14 25 14 18 0 23 4 19 15 -4 8 -1 15 5 15 5 0
35 20 65 45 31 25 58 45 62 45 3 0 20 11 38 25 18 14 40 25 48 25 8 0 20 11
28 24 11 21 51 42 72 38 4 -1 5 5 2 13 -5 11 1 15 24 15 18 0 35 7 40 16 5 9
29 17 65 21 31 3 57 10 57 15 0 14 41 26 156 42 157 23 359 24 439 4 69 -18
79 -20 110 -25 17 -3 38 -12 47 -20 9 -8 35 -16 57 -16 23 -1 41 -5 41 -8 0
-4 15 -12 33 -19 17 -6 44 -18 59 -26 14 -8 33 -14 42 -14 9 0 16 -4 16 -10 0
-5 6 -7 14 -4 9 4 16 -2 18 -17 3 -24 18 -35 61 -44 19 -4 27 -12 27 -26 0
-11 4 -18 9 -15 5 3 14 -1 21 -9 7 -8 21 -15 31 -15 11 0 19 -6 19 -14 0 -8 8
-17 18 -20 10 -4 34 -20 52 -36 19 -17 37 -30 42 -30 4 0 8 -4 8 -10 0 -9 35
-50 95 -110 14 -14 25 -31 25 -38 0 -6 7 -12 15 -12 8 0 15 -8 15 -18 0 -11 9
-27 20 -37 11 -10 20 -25 20 -32 0 -8 9 -26 20 -40 11 -14 20 -31 20 -38 0 -7
7 -26 15 -41 8 -16 15 -38 15 -50 0 -11 4 -24 9 -30 14 -13 51 -166 51 -207 0
-20 6 -37 12 -39 10 -4 13 -59 14 -224 1 -235 -9 -382 -27 -417 -9 -16 -9 -22
0 -25 15 -5 14 -42 -2 -42 -15 0 -13 -203 3 -262 10 -35 78 -118 98 -118 5 0
17 -9 28 -21 10 -11 26 -18 35 -16 10 3 20 -2 23 -10 4 -9 13 -13 22 -9 8 3
25 1 37 -6 12 -6 40 -15 62 -20 22 -5 49 -11 60 -13 11 -3 72 -12 135 -20 114
-16 215 -46 302 -91 14 -8 33 -14 42 -14 9 0 16 -4 16 -10 0 -5 8 -10 18 -10
10 0 24 -6 31 -12 6 -7 15 -13 19 -13 19 -2 121 -57 137 -75 10 -11 23 -20 28
-20 6 0 17 -7 26 -15 35 -33 79 -65 90 -65 6 0 11 -4 11 -10 0 -5 7 -10 15
-10 8 0 20 -10 26 -22 7 -13 39 -49 72 -80 33 -32 57 -58 52 -58 -4 0 -2 -7 5
-15 7 -8 15 -13 19 -10 4 2 13 -11 20 -30 7 -19 17 -34 23 -32 6 1 15 -13 18
-31 4 -17 19 -41 34 -53 15 -12 26 -30 26 -45 0 -13 5 -24 10 -24 6 0 10 -10
10 -22 0 -11 12 -46 26 -76 14 -30 27 -72 28 -93 2 -21 7 -44 13 -51 5 -7 9
-47 10 -88 0 -61 -1 -68 -7 -35 -5 27 -6 19 -2 -25 7 -90 4 -130 -13 -156 -7
-12 -15 -40 -18 -63 -2 -22 -6 -44 -10 -48 -4 -3 -7 -14 -7 -24 0 -10 -6 -24
-14 -31 -7 -8 -17 -27 -21 -44 -3 -16 -17 -49 -30 -74 -13 -25 -29 -57 -35
-72 -7 -15 -20 -30 -31 -33 -10 -4 -19 -11 -19 -17 0 -15 -36 -58 -44 -51 -3
3 -6 -1 -6 -10 0 -10 -5 -17 -10 -17 -6 0 -26 -17 -46 -37 -29 -29 -37 -34
-45 -22 -6 10 -9 7 -9 -13 0 -23 -4 -28 -25 -28 -14 0 -25 -6 -25 -13 0 -7
-20 -19 -45 -26 -25 -7 -62 -22 -82 -32 -21 -11 -44 -19 -53 -19 -9 0 -21 -5
-28 -12 -6 -6 -30 -15 -54 -19 -24 -4 -61 -12 -84 -18 -23 -6 -58 -13 -79 -15
-20 -3 -47 -14 -59 -25 -12 -12 -26 -21 -32 -21 -24 0 -44 -87 -44 -191 0 -58
-3 -109 -7 -113 -5 -4 -9 -17 -10 -29 -9 -103 -15 -177 -18 -267 -7 -165 -15
-393 -15 -418 0 -12 -6 -25 -14 -28 -9 -4 -12 -19 -8 -54 3 -36 0 -57 -13 -76
-9 -14 -17 -43 -17 -63 0 -20 -5 -42 -11 -49 -6 -7 -12 -23 -13 -35 -5 -45
-22 -107 -32 -119 -10 -12 -19 -61 -27 -138 -2 -19 -8 -51 -15 -70 -6 -19 -13
-59 -16 -87 l-6 -53 671 0 671 0 0 3200 0 3200 -3200 0 -3200 0 0 -3200z"/>
<path d="M3225 5944 c-166 -25 -301 -66 -420 -127 -64 -33 -101 -62 -185 -146
-182 -183 -284 -367 -321 -578 -8 -51 -17 -73 -27 -73 -28 0 -73 -43 -99 -93
-21 -41 -27 -70 -31 -137 -8 -155 26 -261 109 -341 39 -38 49 -54 49 -81 0
-18 5 -51 10 -73 9 -39 8 -41 -33 -78 -100 -89 -140 -114 -206 -127 -164 -31
-537 -222 -871 -446 -89 -60 -110 -79 -140 -129 -31 -53 -35 -67 -38 -152 -3
-51 -9 -93 -14 -93 -42 0 -125 -111 -163 -217 -30 -81 -58 -122 -210 -313
-137 -171 -185 -247 -192 -300 -4 -27 -13 -44 -29 -55 -29 -19 -60 -77 -75
-142 -16 -70 -13 -251 7 -325 39 -153 171 -330 322 -432 64 -43 245 -121 343
-147 l46 -12 11 -69 c13 -88 42 -146 107 -216 l52 -57 -9 -70 c-17 -132 19
-297 97 -442 l44 -81 -6 -99 c-6 -108 4 -293 17 -293 4 0 7 78 7 174 -1 96 1
178 5 181 11 11 67 -46 61 -62 -4 -11 1 -13 23 -8 l29 7 -25 -15 c-22 -12 -27
-12 -37 1 -12 14 -13 14 -13 0 0 -8 -3 -31 -6 -49 -4 -26 -3 -30 5 -19 9 13
11 13 11 0 0 -9 -4 -20 -10 -26 -6 -6 -6 -23 1 -48 6 -21 8 -44 5 -51 -2 -8 0
-30 5 -49 10 -35 11 -36 59 -36 l50 0 0 40 c0 22 -4 40 -9 40 -16 0 -21 113
-6 143 13 26 13 28 -4 22 -12 -3 -21 0 -25 11 -4 11 -2 15 6 11 17 -6 50 6 49
18 -1 6 -9 10 -19 10 -9 0 -16 5 -15 12 2 7 -3 10 -11 7 -23 -9 -94 47 -135
106 -47 66 -98 187 -117 275 -15 68 -17 180 -5 240 l9 40 2 -35 c1 -19 1 -39
0 -45 -6 -22 0 -49 12 -56 10 -7 11 -12 0 -29 -6 -11 -12 -23 -12 -27 0 -5 4
-1 10 7 14 22 20 8 31 -66 5 -37 18 -82 29 -99 11 -18 20 -40 20 -49 0 -9 7
-16 16 -16 8 0 13 -4 10 -8 -3 -5 8 -9 23 -9 23 0 28 5 30 26 5 68 8 76 37 90
16 8 33 19 37 25 6 8 10 8 13 -1 4 -8 11 -6 24 7 14 14 30 17 73 15 42 -3 59
1 69 12 7 9 50 41 96 71 47 31 88 65 93 79 5 13 20 28 34 35 14 6 25 16 25 22
0 6 16 29 35 51 19 22 35 45 35 52 0 6 12 21 26 32 29 23 39 64 23 93 -11 21
1 24 20 6 11 -11 12 -9 6 9 -3 13 -2 23 3 23 5 0 15 26 22 58 7 31 17 62 22
69 5 6 5 14 0 17 -5 3 -12 38 -15 78 -5 53 -15 90 -37 133 -47 92 -66 120 -80
117 -8 -2 -10 3 -7 13 4 8 2 15 -3 15 -6 0 -10 7 -10 15 0 8 -4 15 -10 15 -5
0 -10 -4 -10 -10 0 -5 -5 -10 -11 -10 -7 0 -9 9 -6 21 3 13 1 19 -6 16 -7 -2
-11 -15 -10 -28 2 -21 1 -22 -8 -7 -7 12 -7 24 1 37 15 28 12 35 -6 20 -13
-11 -17 -10 -26 4 -5 9 -26 24 -46 33 -20 9 -31 18 -24 21 7 3 20 -1 29 -9 15
-12 15 -11 2 10 -8 12 -18 20 -24 18 -39 -16 -45 -17 -45 -7 0 6 9 11 19 11
10 0 22 7 25 16 9 24 8 25 -14 12 -25 -16 -41 0 -16 17 11 8 15 19 10 26 -4 7
-9 44 -11 81 -3 52 1 76 14 98 21 36 34 39 210 44 73 2 138 8 145 12 17 11 58
14 58 5 0 -4 -6 -13 -12 -21 -7 -8 -3 -6 10 5 16 13 19 21 10 26 -7 4 -9 11
-5 15 4 4 15 0 24 -9 14 -13 14 -19 3 -32 -27 -32 -1 -25 35 9 20 20 41 34 46
31 5 -4 7 0 4 7 -4 12 52 60 103 87 19 10 26 10 40 -1 13 -11 15 -11 10 4 -5
12 -1 16 17 14 17 -2 22 1 18 12 -5 11 -1 13 18 7 19 -5 21 -4 9 4 -13 10 -13
12 -1 20 9 6 22 6 33 0 17 -9 22 -5 19 13 0 5 9 8 22 8 26 0 77 21 77 33 0 4
9 7 20 7 11 0 20 4 20 9 0 5 12 9 27 9 15 0 29 5 31 11 2 6 9 11 15 11 7 0 28
9 48 19 20 11 41 16 47 12 6 -3 -22 -19 -61 -36 -196 -79 -447 -231 -479 -288
-11 -22 -18 -25 91 47 91 60 287 160 399 204 210 83 521 159 569 141 32 -12
52 -11 33 1 -13 8 -13 10 3 11 9 1 29 3 45 5 108 11 343 15 432 6 116 -12 252
-41 244 -53 -2 -4 9 -10 25 -14 16 -3 37 -15 47 -26 9 -10 24 -19 33 -19 9 0
27 -7 39 -16 15 -10 33 -13 55 -9 25 5 29 4 17 -5 -13 -10 -13 -11 0 -7 8 2
34 -4 57 -14 23 -10 45 -14 48 -10 4 8 -30 28 -75 44 -13 5 -13 5 0 6 8 0 34
-8 57 -19 31 -14 41 -23 37 -34 -3 -9 -2 -16 4 -16 6 0 12 5 14 12 3 8 25 0
64 -22 32 -19 61 -37 64 -40 3 -4 13 -11 22 -16 26 -14 137 -124 150 -148 10
-18 9 -19 -4 -9 -15 13 -28 8 -28 -9 0 -5 4 -7 8 -4 10 6 52 -38 52 -54 0 -12
16 -13 23 -2 2 4 2 1 0 -6 -5 -22 8 -36 19 -21 6 10 7 6 3 -10 -6 -19 -4 -23
8 -18 12 4 14 2 10 -10 -4 -10 -2 -14 4 -10 13 8 47 -54 71 -134 49 -159 50
-415 1 -575 -38 -128 -110 -289 -124 -276 -5 4 -5 2 -1 -5 7 -14 -37 -81 -124
-188 -72 -88 -95 -109 -111 -99 -7 4 -10 3 -6 -3 4 -6 -12 -26 -36 -45 -48
-39 -144 -108 -151 -108 -3 0 -27 -13 -53 -28 -97 -56 -265 -108 -425 -133
-118 -18 -483 -6 -637 20 -186 32 -416 98 -433 125 -4 6 -10 7 -14 4 -3 -4
-30 5 -58 19 -28 15 -57 28 -64 29 -7 1 -25 11 -40 20 -15 10 -49 30 -77 45
-94 49 -205 121 -238 154 -9 8 -18 11 -21 6 -3 -5 16 -28 43 -52 37 -33 47
-47 39 -56 -7 -9 -7 -13 1 -13 7 0 23 -11 37 -25 14 -14 21 -25 16 -25 -5 0
-15 7 -22 15 -7 8 -20 15 -29 15 -14 -1 -14 -2 2 -14 10 -8 15 -20 11 -29 -11
-29 54 -75 96 -69 13 3 13 2 0 -7 -8 -5 -18 -7 -23 -4 -5 3 -7 -3 -5 -13 2
-11 10 -18 17 -16 22 5 51 -9 51 -24 0 -8 3 -13 8 -12 4 1 24 -2 46 -7 28 -6
41 -4 47 6 7 9 8 5 3 -12 -5 -25 -3 -27 35 -34 22 -4 45 -4 51 0 17 11 92 -5
87 -18 -5 -13 -10 -13 -42 -1 -16 6 -18 5 -7 -7 7 -7 36 -14 70 -15 49 -1 57
-4 60 -22 6 -38 48 -53 205 -73 59 -8 97 -18 97 -25 0 -34 549 -33 576 1 14
18 64 31 64 16 0 -6 7 -8 15 -4 9 3 14 11 12 17 -2 6 12 16 32 23 l36 12 -45
-4 c-25 -2 -54 0 -65 5 l-20 10 20 -2 c79 -7 388 73 442 115 7 5 19 7 28 3 8
-3 14 0 12 6 -1 5 7 12 17 14 10 1 22 8 26 15 5 6 13 8 20 4 9 -6 11 -4 5 5
-5 9 -1 11 16 6 13 -3 18 -3 12 0 -7 3 -13 10 -13 15 0 11 27 12 33 2 2 -5 2
-2 1 4 -2 7 21 29 51 49 30 20 58 40 61 45 10 17 22 9 33 -22 6 -17 15 -28 20
-24 6 3 7 13 4 21 -3 9 0 20 8 26 10 7 9 8 -6 4 -16 -5 -21 -1 -22 14 -2 22
13 28 19 8 3 -9 9 -8 21 4 22 22 24 46 2 28 -28 -23 -15 -5 22 30 20 19 33 29
28 21 -4 -8 -2 -17 6 -23 11 -8 10 -9 -4 -4 -11 4 -20 0 -24 -11 -4 -9 -1 -19
5 -21 7 -2 12 -8 12 -14 0 -6 -7 -7 -16 -4 -12 5 -15 2 -10 -9 3 -9 -1 -18 -9
-21 -26 -10 -10 -68 20 -73 10 -1 9 -29 -1 -115 -4 -27 -2 -51 3 -55 13 -8 34
-71 27 -82 -3 -5 -11 -9 -17 -9 -8 0 -7 4 2 9 11 7 12 13 4 23 -6 7 -13 22
-15 33 -2 11 -4 -21 -3 -72 0 -50 3 -87 6 -81 3 5 9 2 13 -8 4 -9 1 -22 -5
-28 -9 -8 -10 -8 -5 2 4 6 2 12 -4 12 -7 0 -9 -7 -6 -16 4 -10 -4 -30 -19 -50
-14 -18 -25 -38 -25 -45 0 -16 35 15 73 66 16 22 27 32 24 22 -4 -10 -3 -16 2
-12 5 3 12 -1 14 -7 3 -7 4 2 2 19 -2 22 6 49 26 85 l30 53 -6 -85 c-4 -47
-12 -118 -19 -157 -9 -54 -9 -73 -1 -73 16 0 36 116 42 245 5 107 6 113 54
210 86 177 93 213 95 495 0 135 6 281 12 325 30 216 34 267 29 365 -7 119 -46
284 -102 434 -50 135 -46 152 23 96 87 -69 252 -120 389 -120 111 0 204 23
308 74 180 89 305 244 362 448 12 45 17 100 17 193 0 123 -1 134 -31 206 -69
165 -189 318 -320 405 -68 45 -191 100 -245 109 -28 5 -46 16 -65 42 -14 19
-43 43 -64 53 -71 37 -211 71 -314 77 -96 6 -112 11 -380 110 -154 58 -283
108 -288 112 -4 4 4 32 17 62 23 50 25 66 27 238 2 150 7 205 26 295 13 61 27
166 30 233 5 106 4 126 -12 149 -15 24 -17 42 -11 143 9 144 -3 227 -50 340
-67 161 -156 273 -307 385 -130 96 -244 150 -405 192 -78 20 -128 26 -252 29
-85 2 -168 1 -185 -1z m570 -220 c44 -4 82 -8 85 -9 3 -1 22 -5 43 -10 28 -5
35 -10 25 -17 -8 -5 -4 -6 13 -2 15 3 30 1 34 -5 3 -6 11 -9 16 -6 5 4 9 1 9
-4 0 -6 9 -11 19 -11 11 0 23 -5 27 -11 3 -6 19 -9 34 -6 21 5 33 0 50 -18 13
-14 19 -29 15 -36 -6 -8 -4 -10 4 -4 17 10 64 -36 109 -105 30 -48 45 -77 92
-185 21 -48 30 -107 30 -205 -1 -140 -17 -314 -30 -318 -7 -3 -6 -9 2 -20 10
-12 10 -16 1 -19 -7 -3 -13 -11 -13 -18 0 -7 6 -16 13 -18 9 -4 8 -8 -3 -16
-13 -10 -13 -12 0 -21 12 -8 12 -10 -5 -10 -14 0 -16 -3 -7 -8 10 -7 12 -77
10 -333 -3 -313 -4 -326 -26 -369 -72 -146 -204 -253 -412 -335 -193 -76 -355
-98 -530 -71 -92 14 -249 51 -178 42 15 -1 44 0 65 4 l38 8 -43 1 c-31 1 -44
6 -49 19 -4 9 -17 25 -30 35 -27 22 -29 34 -5 39 13 3 10 7 -13 18 -16 9 -34
25 -40 38 -8 18 -18 22 -57 22 -35 0 -48 4 -48 15 0 44 -46 85 -96 85 -16 0
-24 7 -26 22 -2 14 -18 29 -44 42 -52 26 -76 46 -71 59 2 6 -16 28 -39 49 -24
22 -41 45 -38 52 3 7 -6 21 -20 30 -27 17 -35 46 -13 46 13 1 -22 24 -37 25
-5 0 -14 15 -21 34 -6 18 -19 39 -28 46 -23 16 -21 32 3 45 22 12 18 33 -4 24
-27 -10 -41 27 -41 107 0 44 -3 79 -7 79 -12 0 -9 68 3 75 5 4 9 19 8 33 -3
41 12 92 27 92 10 0 14 13 14 44 0 40 19 74 33 60 3 -3 3 3 0 15 -3 12 2 27
11 36 9 9 16 25 16 35 0 29 11 50 25 50 18 0 27 30 30 103 4 63 17 82 53 75
22 -4 53 27 46 47 -4 9 0 15 9 15 8 0 18 11 21 25 4 14 11 25 16 25 6 0 10 9
10 20 0 15 -7 20 -27 21 -24 1 -25 2 -7 7 31 10 80 72 89 111 4 19 13 41 21
48 16 16 84 17 84 1 0 -27 22 12 25 44 2 27 7 34 29 36 14 2 26 7 26 12 0 5
26 9 59 9 91 -2 131 19 79 41 -20 8 -18 9 14 9 27 1 46 10 73 35 25 24 42 33
58 29 16 -3 18 -2 8 5 -11 8 -9 11 10 18 13 4 30 7 38 5 8 -1 17 3 22 10 5 8
36 14 86 17 43 2 80 5 82 8 3 2 18 2 35 0 17 -3 67 -8 111 -12z m-1576 -1605
c-34 -30 -116 -67 -167 -75 -23 -3 -45 -10 -48 -15 -3 -5 -14 -9 -25 -9 -13 0
-18 -4 -13 -12 4 -7 3 -8 -5 -4 -16 10 -53 -3 -45 -16 4 -6 -1 -8 -16 -3 -15
5 -20 4 -16 -3 4 -7 -8 -14 -29 -18 -19 -3 -35 -10 -35 -15 0 -5 -5 -9 -10 -9
-22 0 -110 -45 -110 -57 0 -6 -14 -14 -30 -18 -17 -4 -27 -11 -24 -17 4 -6 1
-9 -7 -6 -7 2 -22 -5 -32 -16 -10 -12 -16 -15 -12 -8 10 20 -6 14 -31 -13 -14
-15 -34 -25 -51 -25 -22 0 -25 -2 -13 -10 12 -8 9 -10 -12 -10 -16 0 -28 -4
-28 -10 0 -5 -9 -10 -21 -10 -13 0 -18 -4 -13 -12 5 -8 2 -9 -9 -5 -10 4 -16
2 -14 -5 1 -7 -2 -12 -8 -13 -18 -1 -75 -30 -75 -37 0 -5 -9 -8 -20 -8 -11 0
-20 -4 -20 -10 0 -5 -8 -10 -18 -10 -10 0 -22 -3 -28 -7 -5 -5 -2 -1 7 7 20
18 25 22 164 110 61 38 114 70 119 70 5 0 17 6 25 14 22 20 304 162 371 187
30 11 97 31 149 45 90 23 103 29 145 66 11 10 22 16 24 13 3 -3 -6 -14 -19
-26z m77 -219 c15 0 24 -6 24 -15 0 -9 6 -15 13 -14 30 4 47 -2 47 -17 0 -9 6
-14 13 -11 6 2 27 -4 45 -15 17 -11 32 -17 32 -13 0 4 13 -4 28 -17 16 -12 41
-32 57 -43 47 -34 66 -55 59 -68 -4 -7 -4 -9 1 -5 4 4 14 1 22 -7 8 -8 23 -15
33 -15 11 0 24 -9 30 -20 6 -10 16 -17 24 -14 8 3 16 -3 19 -16 3 -13 16 -22
36 -26 16 -4 38 -15 47 -25 10 -11 30 -19 48 -19 20 0 36 -7 44 -20 9 -16 23
-20 61 -20 28 0 53 -5 57 -11 5 -8 10 -6 16 5 5 9 6 21 3 26 -9 15 8 12 33 -6
15 -11 40 -15 75 -13 29 1 59 0 67 -4 25 -9 137 -16 115 -7 -11 5 -32 9 -46 9
-14 1 -34 8 -45 16 -18 14 -18 15 7 6 14 -5 87 -15 162 -22 109 -10 153 -10
218 0 185 28 369 97 510 191 36 24 65 36 77 33 12 -3 28 4 42 19 23 23 23 23
17 1 -3 -16 -1 -20 10 -16 8 3 19 0 24 -8 7 -12 9 -12 9 0 0 11 11 12 50 7 52
-7 100 0 100 15 0 5 -7 9 -15 9 -8 0 -15 7 -15 15 0 8 -7 15 -15 15 -9 0 -18
7 -21 15 -6 14 -71 41 -89 36 -6 -1 -6 2 1 8 11 13 40 5 194 -52 52 -19 155
-56 228 -82 72 -27 132 -52 132 -55 0 -4 -17 -10 -38 -14 -46 -7 -167 -66
-200 -96 -13 -12 -25 -34 -28 -49 -5 -26 -9 -28 -62 -29 -104 -3 -160 -78
-133 -180 16 -62 24 -70 108 -108 66 -30 73 -36 84 -75 7 -22 33 -63 58 -91
35 -40 42 -52 30 -59 -10 -6 -10 -9 -1 -9 18 0 15 -20 -5 -37 -17 -14 -17 -14
3 -10 13 3 21 -1 21 -9 0 -7 -4 -11 -8 -9 -12 8 -19 -38 -7 -52 6 -7 7 -13 2
-13 -8 0 -54 63 -63 85 -28 76 -63 126 -77 112 -6 -6 56 -138 102 -217 14 -25
20 -37 12 -28 -13 15 -16 14 -30 -17 -8 -19 -11 -32 -7 -29 5 3 9 -6 9 -20 0
-14 5 -28 10 -31 12 -8 12 -8 0 33 -8 29 -7 32 5 22 17 -14 20 -51 6 -65 -6
-6 -4 -22 4 -40 11 -24 14 -26 14 -10 1 17 3 17 11 5 27 -41 -2 -85 -75 -116
-58 -24 -131 -12 -340 56 -318 104 -444 126 -670 117 -319 -13 -557 -70 -1010
-242 -238 -90 -343 -124 -447 -145 -134 -28 -201 -26 -266 6 -67 33 -154 128
-199 217 -32 65 -35 79 -34 147 1 41 13 127 26 191 22 106 29 125 81 205 61
95 177 239 219 272 24 19 34 42 17 42 -8 0 -137 -138 -184 -198 -15 -19 -52
-73 -82 -121 -51 -80 -56 -95 -75 -201 -11 -63 -23 -142 -27 -175 -4 -33 -11
-63 -17 -67 -6 -3 -26 2 -45 12 -19 11 -39 17 -44 14 -11 -7 0 -24 14 -24 22
0 48 -34 48 -62 0 -17 -4 -27 -10 -23 -5 3 -10 15 -10 25 0 10 -4 22 -10 25
-6 3 -7 -1 -4 -10 9 -22 -13 -60 -42 -74 -17 -7 -40 -7 -80 0 -31 6 -66 8 -78
5 -12 -3 -63 -1 -115 5 -51 6 -95 8 -98 5 -7 -7 -4 -8 139 -42 65 -15 116 -29
115 -30 -1 0 -15 -4 -32 -8 -22 -5 -26 -4 -15 4 12 8 9 10 -12 10 -16 0 -28
-3 -28 -7 0 -13 14 -30 30 -36 8 -4 -1 -4 -20 -1 l-35 5 30 -20 c16 -11 30
-26 31 -33 0 -7 2 -21 2 -30 1 -10 9 -18 18 -18 8 0 13 -4 10 -9 -3 -4 1 -16
8 -27 8 -10 12 -24 9 -31 -3 -7 0 -20 6 -27 9 -10 9 -16 1 -21 -8 -5 -7 -11 1
-22 10 -11 10 -22 0 -49 -10 -27 -10 -38 -1 -49 8 -10 8 -19 1 -33 -8 -15 -7
-23 3 -31 7 -6 16 -24 19 -40 4 -18 14 -30 27 -34 12 -3 19 -10 16 -15 -3 -5
1 -15 9 -22 12 -10 15 -9 15 6 1 23 26 59 33 47 3 -4 8 -25 12 -46 7 -36 6
-37 -22 -37 -62 0 -174 -51 -217 -99 -26 -29 -3 -27 37 3 65 50 112 61 247 60
144 0 226 -22 272 -73 72 -80 60 -218 -23 -263 -76 -41 -144 -14 -175 70 -21
57 -34 74 -34 45 0 -13 -8 -24 -19 -28 -23 -7 -46 -33 -38 -42 4 -3 14 0 23 8
15 12 18 12 22 0 3 -9 6 -10 11 -2 5 7 17 -3 32 -26 56 -86 141 -94 215 -19
23 22 43 48 46 56 9 25 40 -1 71 -61 26 -48 28 -61 24 -115 -14 -155 -148
-323 -326 -412 -71 -35 -80 -37 -171 -37 -91 0 -100 2 -171 37 -127 63 -220
164 -233 253 -4 29 -4 33 3 15 15 -46 46 -97 57 -93 16 5 38 -24 25 -32 -6 -3
2 -18 20 -36 16 -16 35 -26 41 -23 7 5 8 2 3 -6 -6 -10 -1 -12 26 -6 31 6 32
5 14 -9 -14 -10 -15 -14 -5 -13 8 2 14 -1 13 -7 -1 -5 10 -11 23 -11 14 -1 33
-9 43 -18 10 -9 25 -16 35 -16 10 0 14 -5 10 -12 -5 -7 -3 -8 6 -3 7 4 44 7
82 6 52 -2 68 1 62 10 -5 9 0 10 20 5 18 -4 25 -3 21 4 -4 6 4 10 20 10 14 0
28 7 31 15 4 8 12 15 20 15 8 0 14 5 14 10 0 6 -12 10 -27 10 -16 0 -36 7 -46
15 -11 7 -36 17 -58 20 -21 4 -39 11 -39 17 0 5 -6 8 -12 6 -7 -3 -21 6 -31
19 -10 13 -29 23 -41 23 -20 0 -79 44 -126 94 -89 94 -222 226 -228 226 -4 0
-13 9 -20 20 -6 11 -34 31 -61 44 -33 17 -48 31 -47 43 1 13 -5 17 -22 16 -15
-2 -25 4 -31 20 -5 12 -21 33 -35 46 -14 14 -26 29 -26 35 0 6 -9 17 -20 24
-11 7 -20 21 -20 31 0 10 -8 21 -18 23 -12 4 -23 22 -32 53 -7 26 -19 49 -26
52 -7 2 -16 19 -20 36 -8 38 -55 141 -66 145 -4 2 -8 10 -8 18 0 9 4 13 9 10
5 -3 11 1 15 9 3 8 1 15 -4 15 -6 0 -10 35 -10 79 0 47 -4 81 -11 83 -7 2 -7
12 0 31 6 16 15 25 21 22 11 -7 11 -6 15 41 3 42 25 135 36 156 5 10 6 24 3
33 -4 9 1 17 10 21 19 7 46 66 46 100 0 14 12 32 30 46 31 22 60 69 60 95 0 7
8 13 18 13 14 0 15 2 2 10 -13 9 -13 10 1 10 15 0 63 55 65 75 1 6 2 15 3 20
1 6 6 3 11 -5 8 -13 10 -12 10 3 0 9 4 17 9 17 10 0 30 31 53 83 7 15 18 27
24 27 6 0 19 20 28 45 10 25 22 45 26 45 5 0 17 17 26 38 36 83 50 107 62 115
6 4 12 14 12 21 0 7 13 25 29 42 16 16 31 38 33 49 2 11 9 19 15 18 5 -1 16 9
23 23 8 14 31 35 52 46 23 13 37 27 34 35 -3 8 2 13 13 13 9 0 40 20 67 45 28
26 58 45 71 45 15 0 23 6 23 18 0 15 72 66 74 52 1 -3 27 10 59 28 31 18 75
35 98 37 22 3 47 12 55 19 8 8 27 17 44 21 17 4 30 13 30 21 0 19 30 30 39 15
5 -8 19 -5 49 9 24 12 47 18 52 15 5 -3 15 4 23 16 12 16 31 22 89 29 40 4 79
6 86 4 8 -2 25 -4 38 -4z m2853 -282 c100 -19 184 -55 218 -94 53 -61 73 -213
54 -428 -13 -149 -22 -170 -95 -215 -32 -19 -44 -31 -32 -31 32 0 105 49 121
80 34 65 47 357 21 478 -15 73 -15 73 84 39 233 -80 422 -281 499 -531 48
-157 11 -380 -92 -543 -69 -111 -233 -240 -328 -258 -10 -2 -23 -6 -27 -9 -5
-3 -27 -9 -49 -14 -30 -7 -44 -6 -59 5 -18 13 -17 14 9 8 15 -4 33 -3 40 3 6
6 34 13 61 17 32 5 44 10 35 16 -10 6 -11 9 -1 9 6 0 12 5 12 10 0 6 -7 10
-15 10 -10 0 -15 7 -13 18 2 12 -5 18 -24 20 -18 2 -28 10 -30 24 -2 12 -11
22 -22 24 -10 1 -24 11 -31 21 -8 11 -32 25 -54 33 -23 7 -41 17 -41 21 0 4
-25 19 -55 33 -30 14 -55 30 -55 35 0 6 -8 11 -18 11 -10 0 -29 11 -42 25 -13
14 -38 28 -57 31 -18 3 -33 12 -33 20 0 8 -4 14 -9 14 -5 0 -13 9 -16 20 -3
11 -15 20 -26 20 -10 0 -19 6 -19 14 0 8 -4 16 -9 18 -13 4 -81 127 -81 146 0
8 -3 13 -6 9 -10 -10 -34 20 -34 42 0 12 -5 21 -11 21 -5 0 -7 5 -3 11 3 6 0
16 -7 21 -10 7 -7 8 11 3 14 -4 46 -9 73 -12 64 -8 61 11 -5 31 -51 15 -105
45 -81 46 6 0 9 9 6 19 -3 13 -17 22 -44 26 -21 4 -42 12 -46 17 -4 8 2 9 18
4 59 -17 136 -18 199 -2 106 27 167 64 259 155 l83 84 -6 60 c-6 57 -41 156
-51 145 -3 -3 4 -40 16 -83 11 -42 18 -88 15 -101 -10 -40 -124 -141 -211
-187 l-80 -42 -110 0 c-102 0 -114 2 -160 28 -49 27 -95 86 -95 121 0 9 -4 16
-9 16 -21 0 -53 126 -56 215 -4 125 3 143 70 184 76 46 155 72 250 80 83 8
103 6 194 -11z m-549 -253 c0 -27 7 -74 14 -102 8 -29 11 -54 8 -55 -33 -7
-74 -4 -110 9 -33 11 -46 23 -57 50 -37 87 -9 144 80 163 48 10 65 -7 65 -65z
m385 -2258 c1 -7 4 -73 9 -147 14 -238 -28 -406 -150 -598 -19 -29 -34 -55
-34 -58 0 -3 -9 -17 -19 -30 l-19 -24 2 24 c0 14 6 22 14 19 14 -6 16 13 2 22
-5 3 -10 12 -9 18 0 9 2 9 6 0 8 -21 26 -15 20 6 -3 12 1 22 10 25 9 4 12 13
8 26 -4 14 -1 22 10 26 11 5 15 14 11 30 -5 17 -3 22 8 18 14 -5 29 32 23 58
-2 7 -2 10 0 6 10 -17 24 -7 18 12 -3 11 -2 20 3 20 5 0 9 12 9 28 0 15 3 66
8 115 7 78 6 90 -11 109 l-19 21 28 -18 c34 -22 35 -14 1 20 -14 14 -23 29
-19 33 4 4 10 1 12 -5 3 -7 9 -13 14 -13 12 0 8 52 -5 61 -4 4 -3 16 4 29 18
34 5 35 -20 1 -12 -17 -27 -31 -33 -31 -8 0 -8 3 -2 8 20 14 105 181 105 204
0 15 15 0 15 -15z"/>
<path d="M3655 5197 c-16 -17 -47 -45 -67 -60 -52 -40 -83 -133 -68 -202 14
-64 32 -96 75 -133 66 -58 148 -56 208 6 93 95 93 241 1 329 -24 24 -44 47
-44 51 0 15 -36 42 -56 42 -10 0 -32 -15 -49 -33z m5 -66 c16 -32 48 -36 82
-11 29 21 30 21 50 3 61 -55 78 -182 35 -257 -63 -110 -191 -114 -258 -7 -24
37 -29 56 -29 105 0 71 25 133 65 164 34 27 41 27 55 3z"/>
<path d="M2733 4767 c-54 -21 -47 -24 54 -29 143 -8 290 -65 404 -159 76 -63
141 -99 175 -99 53 0 47 15 -12 34 -36 11 -73 34 -107 64 -71 65 -184 138
-259 169 -73 30 -202 41 -255 20z"/>
<path d="M2677 4646 c-3 -8 -3 -31 0 -51 3 -20 0 -54 -7 -75 -17 -52 0 -138
40 -203 17 -27 27 -53 24 -59 -4 -6 -2 -8 4 -4 5 3 24 -5 40 -19 62 -52 119
-70 222 -70 83 0 103 4 155 28 66 31 100 58 121 99 18 35 18 52 -1 44 -8 -3
-15 -1 -15 5 0 5 7 12 15 15 24 10 17 38 -17 70 -154 142 -297 207 -460 208
-60 1 -89 5 -93 14 -6 16 -22 15 -28 -2z m306 -60 c76 -28 178 -93 251 -159
l50 -44 -43 -31 c-140 -101 -339 -108 -443 -14 -58 52 -81 103 -86 194 -4 74
-4 76 19 81 57 13 185 -1 252 -27z"/>
<path d="M4223 4573 c-22 -16 -67 -52 -99 -82 -33 -29 -69 -57 -81 -62 -30
-11 -29 -24 10 -81 38 -56 78 -78 141 -78 39 0 52 6 86 36 26 23 44 51 51 78
14 50 7 180 -11 201 -19 22 -52 18 -97 -12z m89 -29 c2 -20 1 -62 -3 -93 -15
-108 -96 -140 -209 -84 l-53 26 76 74 c127 121 181 143 189 77z"/>
<path d="M3540 3934 c-52 -8 -115 -21 -140 -29 l-45 -15 75 6 c41 3 126 9 187
14 108 8 231 6 282 -6 20 -4 22 -3 13 9 -30 36 -202 46 -372 21z"/>
<path d="M4492 2674 c-26 -32 -29 -40 -20 -65 30 -87 173 -75 170 14 -1 52 -5
66 -16 64 -6 -1 -10 3 -9 8 1 6 -20 11 -47 13 -44 3 -50 0 -78 -34z"/>
<path d="M2204 2608 c-40 -10 -81 -51 -89 -88 -17 -75 68 -149 149 -130 75 17
121 91 92 148 -30 59 -91 86 -152 70z m113 -50 c16 -15 23 -33 23 -59 0 -69
-82 -110 -153 -78 -23 10 -38 32 -50 70 -8 25 22 77 52 88 37 15 102 4 128
-21z"/>
<path d="M2585 300 c-4 -6 -1 -17 5 -25 7 -8 9 -24 5 -36 -5 -14 -4 -19 4 -15
6 4 11 3 11 -3 0 -5 -8 -15 -17 -20 -10 -6 -13 -11 -6 -11 8 0 10 -16 8 -50
-2 -27 0 -52 5 -55 5 -3 6 -13 3 -21 -5 -13 -1 -15 14 -10 21 7 52 -18 39 -31
-3 -3 -6 -1 -6 5 0 7 -7 12 -16 12 -31 0 -10 -34 24 -37 35 -4 37 -2 21 29 -6
11 -8 22 -5 25 3 4 11 -8 17 -25 8 -23 17 -32 33 -32 l23 0 -27 58 c-15 31
-40 83 -54 114 -15 32 -24 63 -20 69 4 7 3 9 -3 6 -6 -4 -16 7 -23 23 -15 35
-26 45 -35 30z"/>
</g>
</svg>
